<?xml version="1.0" standalone="no"?><!-- Generator: Gravit.io --><svg xmlns="http://www.w3.org/2000/svg" xmlns:xlink="http://www.w3.org/1999/xlink" style="isolation:isolate" viewBox="427 399 640 512" width="640" height="512"><defs><clipPath id="_clipPath_gCFhKxUtO3oomT0JSCJ74uCrFb3N7Lsm"><rect x="427" y="399" width="640" height="512"/></clipPath></defs><g clip-path="url(#_clipPath_gCFhKxUtO3oomT0JSCJ74uCrFb3N7Lsm)"><path d=" M 683 735 L 682.98 735 C 682.98 718.82 684.32 726.27 597.93 553.49 C 580.28 518.2 529.74 518.13 512.06 553.49 C 424.94 727.75 427.02 719.33 427.02 735 L 427 735 C 427 779.18 484.31 815 555 815 C 625.69 815 683 779.18 683 735 Z  M 555 575 L 627 719 L 483 719 L 555 575 Z  M 1066.98 735 C 1066.98 718.82 1068.32 726.27 981.93 553.49 C 964.28 518.2 913.74 518.13 896.06 553.49 C 808.94 727.75 811.02 719.33 811.02 735 L 811 735 C 811 779.18 868.31 815 939 815 C 1009.69 815 1067 779.18 1067 735 L 1066.98 735 Z  M 867 719 L 939 575 L 1011 719 L 867 719 Z  M 955 847 L 779 847 L 779 552.25 C 802.51 541.96 820.16 520.77 825.39 495 L 955 495 C 963.84 495 971 487.84 971 479 L 971 447 C 971 438.16 963.84 431 955 431 L 810.64 431 C 796.04 411.68 773.09 399 747 399 C 720.91 399 697.96 411.68 683.36 431 L 539 431 C 530.16 431 523 438.16 523 447 L 523 479 C 523 487.84 530.16 495 539 495 L 668.61 495 C 673.84 520.76 691.48 541.96 715 552.25 L 715 847 L 539 847 C 530.16 847 523 854.16 523 863 L 523 895 C 523 903.84 530.16 911 539 911 L 955 911 C 963.84 911 971 903.84 971 895 L 971 863 C 971 854.16 963.84 847 955 847 Z " fill="rgb(255,255,255)"/></g></svg>